<svg width="171" height="18" viewBox="0 0 171 18" fill="none" xmlns="http://www.w3.org/2000/svg">
<path d="M3.1454 0.0767746C2.99137 0.186531 2.89234 0.592628 2.76031 1.64629C2.7053 2.09629 2.61728 2.57922 2.55127 2.7219C2.49625 2.86458 2.44124 3.16092 2.44124 3.39141C2.44124 3.6219 2.36422 4.028 2.2762 4.28044C2.18818 4.53288 2.14417 4.78532 2.17718 4.84019C2.21019 4.89507 4.96082 4.93897 8.56965 4.93897C14.291 4.93897 14.9291 4.96093 15.2042 5.12556C15.5673 5.3341 15.6883 5.68532 15.5343 6.08044C15.3252 6.64019 15.4022 6.64019 8.38261 6.69507L1.8361 6.74995L1.75908 7.24385C1.70407 7.51824 1.61605 8.13288 1.55004 8.61581C1.48402 9.09873 1.385 9.58166 1.32999 9.68044C1.27497 9.77922 1.23096 10.0756 1.23096 10.339C1.21996 10.6024 1.15395 11.0085 1.06593 11.25C0.977905 11.4914 0.900887 11.8756 0.900887 12.0951C0.900887 12.3146 0.845874 12.6329 0.790862 12.7975C0.724847 12.9622 0.625824 13.478 0.570811 13.928C0.449783 15.0256 0.240735 16.2439 0.119708 16.5183C0.0316873 16.7268 -0.0233254 17.4073 0.00968223 17.8134C0.0206848 17.989 0.21873 18 2.94736 17.978C5.42293 17.9451 5.89604 17.9231 5.97305 17.7804C6.12709 17.4731 6.40215 16.0573 6.40215 15.5634C6.40215 15.289 6.44616 14.9268 6.51218 14.7512C6.56719 14.5756 6.67722 14.1146 6.73223 13.7195C6.99629 12.128 7.0293 11.9634 7.10631 11.8865C7.15032 11.8317 7.94251 11.7878 8.85572 11.7768C15.9964 11.689 16.7225 11.6451 17.6467 11.1841C17.7568 11.1292 17.8998 11.0853 17.9548 11.0853C18.0868 11.0853 18.89 10.7121 19.2091 10.5036C19.6932 10.1853 20.7054 9.03288 20.7054 8.79142C20.7054 8.73654 20.7715 8.63776 20.8485 8.59385C21.0245 8.47312 21.5196 7.1341 21.7947 6.00361C21.9597 5.32312 21.9487 3.6219 21.7837 2.85361C21.6627 2.32678 21.5526 2.15117 20.8485 1.44873C20.4084 1.02068 19.9573 0.658484 19.8472 0.658484C19.7372 0.658484 19.6052 0.61458 19.5502 0.559702C19.4842 0.504824 19.1211 0.373117 18.725 0.263361C18.0758 0.0767746 17.3497 0.0657997 10.6381 0.0328732C6.57819 0.0109215 3.21142 0.0328732 3.1454 0.0767746Z" fill="#2176FF"/>
<path d="M23.6871 0.0987663C23.5331 0.197548 23.4671 0.482914 23.181 2.19511C23.093 2.71096 22.972 3.42438 22.9059 3.78657C22.8509 4.14877 22.7849 4.54389 22.7629 4.66462C22.7409 4.88414 22.8179 4.88414 29.1224 4.93901C32.6322 4.97194 35.6029 5.0378 35.7349 5.0817C36.043 5.20243 36.197 5.67438 36.076 6.09145C35.8999 6.68414 35.7569 6.69511 28.8033 6.69511C23.8742 6.69511 22.4548 6.72804 22.3888 6.82682C22.3118 6.9695 22.2348 7.39755 22.0257 8.83536C21.9707 9.25243 21.8717 9.77926 21.8167 9.9878C21.6957 10.4378 21.4866 11.6341 21.3766 12.578C21.3216 12.9512 21.2556 13.3024 21.2116 13.3683C21.1786 13.4232 21.0905 13.7963 21.0355 14.1805C20.9805 14.5537 20.8485 15.3659 20.7495 15.9695C20.6504 16.5732 20.5624 17.2646 20.5514 17.5061L20.5404 17.9451H23.5111H26.4818L26.6688 17.2317C26.7678 16.8366 26.8449 16.2659 26.8559 15.9585C26.8669 15.6512 26.9109 15.2561 26.9769 15.0805C27.0759 14.7732 27.1969 14.1256 27.406 12.6988C27.472 12.2927 27.582 12.0073 27.7031 11.9085C27.9231 11.7439 29.5955 11.689 30.5307 11.8098L31.0368 11.8866L31.5429 12.8744C31.818 13.4122 32.038 13.939 32.038 14.0378C32.038 14.1366 32.1151 14.3122 32.2031 14.4219C32.2911 14.5427 32.3681 14.7293 32.3681 14.839C32.3681 14.9488 32.4231 15.0366 32.4781 15.0366C32.5442 15.0366 32.5882 15.0915 32.5882 15.1573C32.5882 15.278 32.7312 15.6183 33.2593 16.7488C33.4354 17.111 33.5784 17.4622 33.5784 17.528C33.5784 17.5939 33.6994 17.7256 33.8535 17.8244C34.0845 17.978 34.5356 18 37.0442 18H39.9599V17.561C39.9599 17.3195 39.9159 17.122 39.8498 17.122C39.7948 17.122 39.7178 17.0012 39.6738 16.8476C39.6408 16.6939 39.5638 16.5732 39.5088 16.5732C39.4538 16.5732 39.4097 16.4744 39.4097 16.3427C39.4097 16.0793 39.0137 15.1902 38.8596 15.0915C38.8046 15.0585 38.7496 14.9268 38.7496 14.8171C38.7496 14.7073 38.6836 14.4768 38.5956 14.3012C38.5075 14.1366 38.3535 13.8183 38.2545 13.6098C38.1665 13.4012 38.0454 13.1488 37.9904 13.061C37.3523 11.9195 37.2973 11.3049 37.8144 11.3049C38.0344 11.3049 38.5075 11.1183 39.0247 10.8439C39.1457 10.7671 39.3877 10.6354 39.5638 10.5476C40.1799 10.2183 41.1041 9.18658 41.4782 8.42926C41.6653 8.02316 41.8303 7.61707 41.8303 7.51828C41.8303 7.43048 41.8743 7.35365 41.9183 7.35365C42.2154 7.35365 42.5565 2.98535 42.2814 2.71096C42.2154 2.64511 42.1604 2.5134 42.1604 2.41462C42.1604 2.23901 42.0834 2.12926 41.4122 1.36096C41.0601 0.976816 40.2019 0.548767 39.1897 0.263401C38.5405 0.0877914 37.8034 0.0658398 31.1578 0.0329132C26.7898 0.0109615 23.7751 0.0329132 23.6871 0.0987663Z" fill="#2176FF"/>
<path d="M50.8524 0.0767326C50.5223 0.0986843 50.2032 0.164537 50.1482 0.230392C50.0822 0.285271 49.9172 0.329172 49.7741 0.329172C49.444 0.329172 47.1885 1.22917 47.0015 1.43771C46.9685 1.47064 46.7704 1.60234 46.5614 1.73405C46.3523 1.86576 46.0333 2.09625 45.8572 2.2499C45.6812 2.40356 45.4941 2.5243 45.4501 2.5243C45.4061 2.5243 45.1311 2.75478 44.845 3.04015L44.3169 3.556L44.2398 4.76332C44.1628 5.98162 43.9428 7.26576 43.7887 7.41942C43.7337 7.46332 43.7007 7.57308 43.7007 7.67186C43.7007 7.8365 43.1616 8.96698 42.8205 9.53772C42.6115 9.87796 42.1714 10.4048 41.8633 10.6792C41.4562 11.0414 41.4562 11.206 41.8193 12.8414C41.8633 13.0499 41.9623 13.3353 42.0283 13.467C42.1054 13.6097 42.2154 13.8182 42.2814 13.9499C42.7215 14.817 42.8865 15.0585 43.4147 15.6182C43.7447 15.9585 44.0418 16.2438 44.0858 16.2438C44.1188 16.2438 44.2619 16.3426 44.3939 16.4743C44.702 16.7597 46.0223 17.3853 46.6714 17.5499C47.9147 17.8682 48.8169 17.945 51.5125 17.9341C54.3732 17.9341 56.1116 17.8133 56.5407 17.5828C56.6727 17.506 56.8818 17.4511 57.0028 17.4511C57.1238 17.4511 57.5419 17.3085 57.927 17.1219C58.3231 16.9463 58.7082 16.7926 58.7962 16.7926C58.9942 16.7926 60.3365 15.9255 60.4576 15.728C60.5016 15.6511 60.6226 15.5853 60.7106 15.5853C60.7987 15.5853 61.0737 15.3877 61.3158 15.1463C61.5578 14.9048 61.8109 14.7072 61.8659 14.7072C61.9209 14.7072 61.9649 14.6524 61.9649 14.5865C61.9649 14.5206 62.108 14.356 62.273 14.2133C62.438 14.0706 62.6801 13.7743 62.7901 13.5658C62.9111 13.3463 63.0432 13.1706 63.0762 13.1706C63.1202 13.1706 63.1862 13.0499 63.2192 12.8963C63.2632 12.7426 63.3402 12.6219 63.3953 12.6219C63.4613 12.6219 63.5053 12.545 63.5053 12.4572C63.5053 12.3694 63.5493 12.2926 63.6043 12.2926C63.6593 12.2926 63.7473 12.1828 63.7803 12.0402C63.8684 11.7438 64.1984 11.0524 64.2865 10.9755C64.3195 10.9426 64.3855 10.767 64.4185 10.5914C64.4845 10.2072 64.6826 9.42796 64.8476 8.91211C65.0016 8.38528 65.0016 6.28893 64.8256 5.59747C64.6275 4.7743 64.0994 3.50113 63.9234 3.4243C63.8684 3.40235 63.8354 3.33649 63.8354 3.27064C63.8354 2.98527 62.273 1.32795 61.9979 1.31698C61.9319 1.31698 61.7999 1.25112 61.7229 1.17429C61.4698 0.954782 60.8647 0.658442 60.6336 0.658442C60.5236 0.658442 60.4246 0.614538 60.4246 0.570635C60.4246 0.438929 59.5224 0.219416 58.5541 0.109659C57.751 0.0218544 52.0737 -9.72748e-05 50.8524 0.0767326ZM55.9906 5.10357C56.8598 5.32308 57.3219 5.57552 57.839 6.09137C58.3781 6.62918 58.6642 7.22186 58.6642 7.77064C58.6642 8.00113 58.7192 8.24259 58.7962 8.31942C58.8842 8.40723 58.8842 8.48406 58.8072 8.58284C58.7412 8.65967 58.6642 8.94503 58.6312 9.20845C58.5982 9.47186 58.5321 9.7243 58.4771 9.75723C58.3561 9.84503 58.004 10.5255 58.004 10.6792C57.982 11.1511 56.2106 12.4024 55.1984 12.6548C54.9563 12.7206 53.746 12.7865 52.5138 12.8085L50.2582 12.8524L49.5431 12.5011C48.7839 12.128 48.2118 11.6011 48.2118 11.2719C48.1567 11.1951 48.1435 11.1436 48.1017 11.0853C48.033 10.9893 47.9697 10.8987 47.9367 10.6682C47.9037 10.4487 47.8267 10.0645 47.7717 9.82308C47.7056 9.51576 47.7277 9.20845 47.8267 8.80235C48.0137 8.07796 48.3328 7.35357 48.4538 7.35357C48.4978 7.35357 48.5418 7.28771 48.5418 7.19991C48.5418 6.9804 49.7191 5.93771 50.2692 5.6743C50.5333 5.54259 50.7423 5.39991 50.7423 5.356C50.7423 5.3121 50.8744 5.2682 51.0504 5.2682C51.2155 5.2682 51.6005 5.19137 51.8976 5.11454C52.6678 4.89503 55.1654 4.89503 55.9906 5.10357Z" fill="#2176FF"/>
<path d="M75.0358 0.120716C74.9257 0.175594 74.8377 0.296326 74.8377 0.373154C74.8377 0.439009 74.7277 0.658522 74.5957 0.845106C74.4526 1.02072 74.2436 1.30608 74.1226 1.48169C74.0015 1.64633 73.8475 1.84389 73.7815 1.90974C73.7155 1.98657 73.6164 2.15121 73.5834 2.28291C73.5394 2.41462 73.4514 2.52438 73.3964 2.52438C73.3414 2.52438 73.2974 2.59023 73.2974 2.66706C73.2974 2.75486 73.1873 2.94145 73.0663 3.08413C72.7803 3.40243 71.845 4.80731 71.735 5.07072C71.691 5.18048 71.603 5.26828 71.537 5.26828C71.482 5.26828 71.4269 5.34511 71.4269 5.43292C71.4269 5.52072 71.3829 5.59755 71.3279 5.59755C71.2729 5.59755 71.1849 5.70731 71.1409 5.83901C71.1079 5.97072 70.9978 6.14633 70.9208 6.23414C70.8328 6.31096 70.7668 6.45365 70.7668 6.54145C70.7668 6.62926 70.7228 6.69511 70.6678 6.69511C70.6128 6.69511 70.4037 6.95853 70.2057 7.26584C69.9966 7.58414 69.7986 7.85853 69.7546 7.88048C69.6995 7.90243 69.6665 7.99023 69.6665 8.07804C69.6665 8.16584 69.5895 8.26463 69.5015 8.29755C69.4135 8.34145 69.3365 8.41828 69.3365 8.47316C69.3365 8.53902 69.1934 8.7695 69.0064 8.99999C68.8303 9.23048 68.6763 9.47194 68.6763 9.5378C68.6763 9.61463 68.5553 9.77926 68.4012 9.92194C68.2472 10.0646 68.1262 10.2293 68.1262 10.2841C68.1262 10.35 67.9832 10.5695 67.7961 10.7671C67.6201 10.9756 67.466 11.2061 67.466 11.2719C67.466 11.3488 67.422 11.4146 67.367 11.4146C67.312 11.4146 67.224 11.5244 67.18 11.6561C67.147 11.7878 66.9929 12.0183 66.8499 12.1719C66.7069 12.3256 66.5858 12.5232 66.5858 12.6C66.5858 12.6768 66.5088 12.7646 66.4208 12.7976C66.3328 12.8415 66.2558 12.9512 66.2558 13.05C66.2558 13.1488 66.1347 13.3573 65.9807 13.5219C65.8267 13.6866 65.7056 13.8622 65.7056 13.9171C65.7056 13.9719 65.6066 14.1037 65.4966 14.2024C65.3756 14.3122 65.1995 14.5537 65.1005 14.7402C64.8474 15.2561 64.6824 15.4866 64.4293 15.739C64.2973 15.8707 64.1653 16.0793 64.1213 16.211C64.0773 16.3537 63.9892 16.4634 63.9342 16.4634C63.8792 16.4634 63.8352 16.5183 63.8352 16.5841C63.8352 16.65 63.6922 16.8915 63.5051 17.122C63.3291 17.3524 63.175 17.6378 63.175 17.7695C63.175 18 63.1971 18 66.5198 18C69.7216 18 69.8646 17.989 70.1396 17.7805C70.3047 17.6488 70.4917 17.4293 70.5687 17.2866C70.7998 16.8476 72.4502 14.4329 72.5492 14.4C72.5932 14.378 72.6372 14.3122 72.6372 14.2573C72.6372 14.2024 72.8133 13.928 73.0333 13.6427C73.2534 13.3463 73.4954 12.9951 73.5614 12.8415C73.6275 12.6878 73.7925 12.4573 73.9245 12.3256C74.0676 12.1939 74.1776 12.0073 74.1776 11.9085C74.1776 11.8098 74.2546 11.711 74.3426 11.678C74.4306 11.6341 74.5077 11.5463 74.5077 11.4585C74.5077 11.3707 74.5517 11.3049 74.6067 11.3049C74.6617 11.3049 74.7497 11.1951 74.7937 11.0524C74.8377 10.9207 74.8927 10.789 74.9368 10.7561C75.0688 10.6463 75.938 9.35121 76.015 9.15365C76.048 9.03292 76.202 8.83536 76.3451 8.70365C76.4881 8.57194 76.5981 8.41828 76.5981 8.36341C76.5981 8.30853 76.7412 8.08902 76.9282 7.89145C77.1042 7.68292 77.2583 7.48536 77.2583 7.44145C77.2583 7.38658 77.4343 7.10121 77.6544 6.80487C78.0395 6.26706 78.0615 6.25609 78.2595 6.4317C78.3805 6.54145 78.4686 6.76097 78.4686 6.9695C78.4686 7.15609 78.5456 7.40853 78.6336 7.52926C78.7216 7.63902 78.7986 7.8695 78.7986 8.03414C78.7986 8.20975 78.8537 8.34145 78.9087 8.34145C78.9747 8.34145 79.0187 8.42926 79.0187 8.52804C79.0187 8.69267 79.4478 10.0976 79.8109 11.1402C79.8769 11.3158 79.9539 11.6122 79.9869 11.7988C80.0089 11.9744 80.1079 12.2268 80.185 12.3476C80.273 12.4683 80.339 12.6988 80.339 12.8634C80.339 13.039 80.383 13.1707 80.438 13.1707C80.493 13.1707 80.559 13.3793 80.6031 13.6317C80.6471 13.8841 80.7131 14.1476 80.7571 14.2134C80.8011 14.2683 80.9331 14.6195 81.0432 14.9817C81.1532 15.3439 81.3182 15.7939 81.3952 15.9915C81.4833 16.178 81.5493 16.4085 81.5493 16.4963C81.5493 16.5841 81.6263 16.8037 81.7143 16.9683C81.8023 17.1439 81.8793 17.3744 81.8793 17.4841C81.8793 17.989 82.0114 18 85.2021 17.978L88.2058 17.9451L88.1948 17.561C88.1838 17.3524 88.1178 17.0012 88.0408 16.7927C87.7987 16.1232 87.6337 15.6622 87.4356 15.0366C87.3366 14.7073 87.2156 14.3341 87.1606 14.2134C87.1055 14.0927 87.0395 13.8073 86.9955 13.5768C86.9625 13.3573 86.8855 13.1707 86.8305 13.1707C86.7645 13.1707 86.7205 13.0061 86.7205 12.8085C86.7095 12.6219 86.6434 12.3366 86.5554 12.1829C86.4674 12.0293 86.4014 11.7768 86.3904 11.6012C86.3904 11.4366 86.3464 11.3049 86.2804 11.3049C86.2253 11.3049 86.1483 11.1183 86.1043 10.8878C86.0603 10.6683 85.9943 10.4268 85.9503 10.3719C85.9063 10.3061 85.8293 10.0976 85.7852 9.89999C85.7522 9.71341 85.6642 9.54877 85.6092 9.54877C85.5542 9.54877 85.5102 9.38414 85.5102 9.18658C85.5102 8.99999 85.4332 8.69267 85.3451 8.51706C85.2571 8.35243 85.1801 8.09999 85.1801 7.96828C85.1801 7.84755 85.1031 7.63902 85.0151 7.52926C84.927 7.40853 84.85 7.17804 84.85 7.0134C84.85 6.84877 84.806 6.68414 84.751 6.65121C84.696 6.61828 84.619 6.40975 84.575 6.19023C84.542 5.97072 84.4649 5.70731 84.4099 5.60853C84.3549 5.50974 84.2779 5.24633 84.2449 5.01584C84.2119 4.79633 84.1349 4.60974 84.0909 4.60974C84.0358 4.60974 83.9698 4.44511 83.9368 4.24755C83.8598 3.76462 83.6067 2.9195 83.5187 2.85364C83.4857 2.82072 83.4197 2.67803 83.3757 2.52438C83.3317 2.37072 83.2547 2.15121 83.2107 2.03047C83.1006 1.75608 82.8696 0.932911 82.7926 0.493887C82.7596 0.307301 82.6715 0.131691 82.6055 0.0877876C82.4185 -0.0439186 75.2558 -0.0109921 75.0358 0.120716Z" fill="#2176FF"/>
<path d="M84.5862 0.0880013C84.4982 0.230684 84.6303 0.86727 84.7513 0.944099C84.8063 0.977026 84.8503 1.09776 84.8503 1.22947C84.8503 1.3502 84.9163 1.60264 84.9933 1.78922C85.2904 2.46971 85.4334 2.91971 85.4885 3.29288C85.5105 3.50142 85.6095 3.77581 85.6865 3.89654C85.7745 4.01727 85.8405 4.21483 85.8405 4.33557C85.8405 4.4563 85.9176 4.64288 85.9946 4.74166C86.1266 4.92825 86.4677 4.93922 90.3956 4.93922C92.8051 4.93922 94.6426 4.98313 94.6426 5.038C94.6426 5.09288 94.7636 5.16971 94.9176 5.20264C95.1487 5.25752 95.1927 5.33435 95.1927 5.66362C95.1927 6.05874 94.9946 6.35508 94.5655 6.57459C94.4005 6.65142 93.1462 6.69532 90.5276 6.69532H86.7207V7.04654C86.7317 7.2441 86.7978 7.52947 86.8858 7.68313C86.9738 7.83679 87.0398 8.08923 87.0508 8.25386C87.0508 8.42947 87.0948 8.56118 87.1498 8.56118C87.2048 8.56118 87.2819 8.75874 87.3259 9.0002C87.3699 9.24167 87.4469 9.46118 87.5019 9.50508C87.5569 9.53801 87.6009 9.66971 87.6009 9.8124C87.6009 9.94411 87.678 10.1526 87.766 10.2734C87.854 10.3831 87.931 10.5697 87.931 10.6904C87.931 10.91 88.2061 11.799 88.4481 12.3697C88.5251 12.5563 88.5912 12.7868 88.5912 12.8746C88.5912 12.9734 88.6352 13.0722 88.6902 13.1051C88.7452 13.138 88.8222 13.3465 88.8662 13.5661C88.8992 13.7856 88.9763 14.049 89.0313 14.1478C89.0753 14.2465 89.2073 14.6417 89.3063 15.0368C89.4054 15.4319 89.5484 15.8929 89.6254 16.0795C89.8675 16.6502 90.0435 17.1661 90.0985 17.4624C90.1975 17.9783 90.4066 18.0112 93.5423 17.9783L96.458 17.9453L96.491 17.649C96.513 17.4844 96.447 17.2319 96.359 17.1002C96.2599 16.9685 96.1829 16.749 96.1829 16.6283C96.1829 16.3978 95.9299 15.5636 95.6658 14.96C95.5888 14.7734 95.5228 14.5429 95.5228 14.4551C95.5228 14.3563 95.4787 14.2575 95.4237 14.2136C95.3577 14.1807 95.2807 13.9283 95.2367 13.6648C95.2037 13.3904 95.1267 13.1709 95.0717 13.1709C95.0166 13.1709 94.9726 13.0502 94.9726 12.8965C94.9726 12.7319 94.8956 12.4575 94.7966 12.2819C94.5435 11.788 94.6536 11.6344 95.2587 11.6344C95.5338 11.6344 95.9959 11.5575 96.2819 11.4807C96.557 11.3929 97.0741 11.2283 97.4262 11.1185C97.7673 11.0197 98.0533 10.888 98.0533 10.8441C98.0533 10.8002 98.1194 10.7563 98.2074 10.7563C98.5154 10.7563 99.6927 9.77947 99.9238 9.32947C100.045 9.08801 100.188 8.89045 100.232 8.89045C100.375 8.89045 100.936 7.58435 101.101 6.87093C101.365 5.76239 101.486 4.39044 101.409 3.42459C101.365 2.93069 101.299 2.52459 101.244 2.52459C101.2 2.52459 101.123 2.39288 101.09 2.23922C101.013 1.94288 100.133 0.988003 99.9458 0.988003C99.8798 0.988003 99.7587 0.922148 99.6817 0.84532C99.5057 0.680685 98.8785 0.428246 98.4384 0.362392C98.2624 0.329464 98.0423 0.241659 97.9543 0.175806C97.7563 0.0111713 84.6853 -0.0656567 84.5862 0.0880013Z" fill="#2176FF"/>
<path d="M103.082 0.84506C102.983 1.31701 102.872 1.84384 102.839 2.03043C102.806 2.20604 102.729 2.55726 102.674 2.79872C102.619 3.04018 102.575 3.42433 102.564 3.64384C102.564 3.87433 102.52 4.06092 102.454 4.06092C102.399 4.06092 102.344 4.25848 102.344 4.49994V4.93896H112.742H123.128L123.238 4.52189C123.304 4.30238 123.359 3.90726 123.359 3.65482C123.359 3.40238 123.414 3.06213 123.469 2.8975C123.535 2.73287 123.634 2.29384 123.7 1.93165C123.755 1.55847 123.843 1.03165 123.898 0.746279C123.942 0.417011 123.942 0.186522 123.865 0.109694C123.788 0.0328641 120.311 -6.29425e-05 113.512 -6.29425e-05H103.258L103.082 0.84506Z" fill="#2176FF"/>
<path d="M125.428 0.120718C125.273 0.208523 125.229 0.384132 125.229 0.856085C125.218 1.19633 125.152 1.67926 125.064 1.92072C124.976 2.16218 124.899 2.56828 124.899 2.82072C124.899 3.07316 124.844 3.4134 124.789 3.57804C124.723 3.74267 124.624 4.14877 124.569 4.48901C124.514 4.82926 124.393 5.52072 124.294 6.03658C124.195 6.55243 124.074 7.38658 124.008 7.90243C123.953 8.41829 123.854 8.87926 123.799 8.93414C123.733 8.99999 123.689 9.26341 123.689 9.54877C123.678 9.82316 123.612 10.2402 123.524 10.4817C123.381 10.8658 123.392 10.9317 123.546 11.1073C123.711 11.2829 123.964 11.3049 126.154 11.3049C127.496 11.3049 128.772 11.2719 128.992 11.239C129.487 11.1512 129.741 10.7561 129.741 10.0537C129.741 9.80121 129.796 9.40609 129.862 9.16463C129.928 8.92316 130.005 8.42926 130.049 8.06707C130.115 7.50731 130.159 7.40853 130.357 7.3756C130.544 7.35365 130.687 7.48536 131.006 8.00121C131.226 8.37438 131.446 8.67072 131.479 8.67072C131.523 8.67072 131.655 8.85731 131.776 9.07682C131.897 9.30731 132.018 9.51585 132.051 9.54877C132.095 9.5817 132.227 9.79024 132.37 10.0098C132.502 10.2402 132.667 10.4268 132.722 10.4268C132.777 10.4268 132.821 10.4707 132.821 10.5366C132.821 10.5915 133.03 10.9317 133.294 11.2939C133.547 11.6451 133.833 12.0402 133.921 12.1829C134.009 12.3146 134.142 12.4902 134.197 12.5561C134.34 12.7317 134.571 13.0829 134.659 13.2805C134.703 13.3683 134.758 13.4671 134.802 13.5C134.835 13.5329 134.978 13.7415 135.121 13.961C135.253 14.1915 135.407 14.378 135.462 14.378C135.506 14.378 135.572 14.4659 135.616 14.5646C135.682 14.7951 135.913 15.1463 136.078 15.311C136.265 15.4976 136.738 16.178 136.815 16.3756C136.848 16.4854 136.936 16.5732 136.991 16.5732C137.046 16.5732 137.123 16.6939 137.156 16.8476C137.2 17.0012 137.277 17.122 137.332 17.122C137.398 17.122 137.442 17.1768 137.442 17.2317C137.442 17.2976 137.574 17.4951 137.739 17.6707L138.025 18H141.568C144.275 18 145.144 17.9671 145.232 17.8683C145.342 17.7256 145.386 17.528 145.595 16.1341C145.661 15.6841 145.749 15.2341 145.782 15.1463C145.881 14.8719 146.134 13.5988 146.233 12.8415C146.288 12.4463 146.387 11.9524 146.453 11.7439C146.519 11.5354 146.574 11.1183 146.574 10.8329C146.574 10.5366 146.629 10.2073 146.684 10.0866C146.75 9.97682 146.827 9.54877 146.871 9.1317C146.904 8.7256 146.97 8.34146 147.025 8.28658C147.069 8.22072 147.147 7.81463 147.18 7.3756C147.224 6.93658 147.312 6.55243 147.356 6.5195C147.411 6.48658 147.455 6.29999 147.455 6.10243C147.455 5.90487 147.532 5.49877 147.62 5.20243C147.708 4.90609 147.785 4.41218 147.785 4.09389C147.785 3.78657 147.84 3.39145 147.906 3.21584C147.972 3.05121 148.06 2.61218 148.115 2.24999C148.17 1.88779 148.269 1.31706 148.346 0.976816C148.566 -0.0658665 148.764 -0.0109882 145.342 0.0219383L142.338 0.0548649L142.305 0.548767C142.294 0.823158 142.228 1.14145 142.173 1.26218C142.107 1.38291 142.019 1.87682 141.953 2.35974C141.799 3.58901 141.403 5.79511 141.194 6.54146C141.128 6.78292 141.073 7.14511 141.073 7.36463C141.073 7.58414 141.029 7.90243 140.963 8.07804C140.908 8.25365 140.809 8.73658 140.754 9.16463C140.622 10.0866 140.468 10.8549 140.38 10.9317C140.281 11.0415 139.929 10.6354 139.5 9.93292C139.28 9.57073 138.928 9.07682 138.708 8.83536C138.499 8.5939 138.322 8.30853 138.322 8.19877C138.322 8.09999 138.278 8.01219 138.223 8.01219C138.168 8.01219 138.003 7.8256 137.871 7.59511C137.728 7.3756 137.574 7.16706 137.53 7.15609C137.486 7.13414 137.442 7.06828 137.442 7.01341C137.442 6.89267 136.98 6.22316 136.87 6.16828C136.815 6.14633 136.782 6.08048 136.782 6.01463C136.782 5.94877 136.661 5.78414 136.507 5.64145C136.353 5.49877 136.232 5.34511 136.232 5.27926C136.232 5.22438 136.166 5.10365 136.1 5.02682C135.891 4.80731 135.682 4.47804 135.616 4.24755C135.572 4.14877 135.506 4.06097 135.462 4.06097C135.429 4.06097 135.198 3.7756 134.956 3.42438C134.725 3.08414 134.439 2.69999 134.329 2.57926C134.219 2.45852 134.109 2.24999 134.076 2.11828C134.031 1.9756 133.976 1.86584 133.932 1.86584C133.899 1.86584 133.745 1.67926 133.591 1.44877C133.437 1.22926 133.294 1.02072 133.261 0.987793C133.151 0.878036 132.92 0.493889 132.865 0.307304C132.832 0.208523 132.689 0.0987663 132.568 0.0658398C132.139 -0.0439167 125.626 -1.33514e-05 125.428 0.120718Z" fill="#2176FF"/>
<path d="M157.775 0.0768166C157.665 0.0987663 157.577 0.208523 157.577 0.307304C157.577 0.417061 157.467 0.614622 157.324 0.76828C157.192 0.921938 156.796 1.4817 156.433 2.03048C156.081 2.56828 155.684 3.18292 155.552 3.3695C155.431 3.56706 155.288 3.7317 155.255 3.7317C155.211 3.7317 155.145 3.85243 155.112 4.00609C155.068 4.15975 154.991 4.28048 154.936 4.28048C154.87 4.28048 154.826 4.33536 154.826 4.40121C154.826 4.46706 154.683 4.70853 154.496 4.93901C154.32 5.1695 154.166 5.39999 154.166 5.46584C154.166 5.5317 154.133 5.59755 154.089 5.6195C154.034 5.63048 153.759 6.0256 153.462 6.4756C153.154 6.9256 152.89 7.32072 152.857 7.35365C152.78 7.4195 151.085 9.89999 150.92 10.1854C150.865 10.2841 150.777 10.3939 150.744 10.4268C150.711 10.4598 150.293 11.0744 149.82 11.7988C149.347 12.5232 148.918 13.1268 148.863 13.1488C148.819 13.1707 148.775 13.2585 148.775 13.3354C148.775 13.4232 148.709 13.5549 148.643 13.6317C148.566 13.7195 148.456 13.8622 148.39 13.95C147.873 14.7732 147.08 15.8707 147.003 15.8927C146.948 15.9146 146.904 16.0024 146.904 16.0793C146.904 16.1561 146.871 16.2439 146.827 16.2659C146.772 16.2768 146.552 16.5732 146.321 16.9134C145.584 17.989 145.474 17.9451 149.215 17.978C151.569 18 152.527 17.9671 152.714 17.8793C152.846 17.8024 153.121 17.4951 153.308 17.1878C153.506 16.8805 153.693 16.6061 153.726 16.5732C153.77 16.5402 153.836 16.4415 153.88 16.3537C154.045 16.0024 154.265 15.6622 154.353 15.5963C154.408 15.5634 154.694 15.1573 155.002 14.7073C155.299 14.2573 155.574 13.8622 155.629 13.8512C155.673 13.8293 155.706 13.7524 155.706 13.6646C155.706 13.5878 155.783 13.4671 155.882 13.3793C155.97 13.3024 156.279 12.8963 156.554 12.4683C156.829 12.0402 157.093 11.6671 157.137 11.6341C157.17 11.6012 157.247 11.5024 157.291 11.4146C157.478 11.0195 158.215 9.87804 158.358 9.76829C158.402 9.73536 158.457 9.60365 158.501 9.46097C158.545 9.32926 158.633 9.21951 158.688 9.21951C158.743 9.21951 158.787 9.15365 158.787 9.06585C158.787 8.97804 158.831 8.89024 158.875 8.86829C158.93 8.84633 159.304 8.34146 159.7 7.7378C160.548 6.4756 160.746 6.20121 160.801 6.26706C160.922 6.39877 161.208 7.07926 161.208 7.22194C161.208 7.29877 161.274 7.52926 161.351 7.71585C161.593 8.2756 161.78 8.81341 161.835 9.10975C161.868 9.26341 161.956 9.5378 162.044 9.73536C162.132 9.92195 162.198 10.1524 162.198 10.2512C162.198 10.35 162.242 10.5146 162.297 10.6244C162.561 11.1512 162.748 11.6671 162.748 11.8866C162.748 12.0293 162.825 12.2378 162.913 12.3585C163.001 12.4683 163.078 12.6988 163.078 12.8634C163.078 13.0171 163.133 13.1707 163.199 13.1927C163.265 13.2146 163.353 13.489 163.386 13.8073C163.408 14.1256 163.474 14.378 163.518 14.378C163.562 14.378 163.639 14.5537 163.683 14.7732C163.716 14.9927 163.793 15.2561 163.837 15.3549C163.892 15.4537 164.101 16.0463 164.299 16.6829C164.508 17.3195 164.728 17.8683 164.784 17.9122C164.85 17.9561 166.269 18 167.952 18H171V17.7366C171 17.5939 170.923 17.3305 170.835 17.1659C170.747 16.9902 170.67 16.7159 170.67 16.5512C170.67 16.3866 170.626 16.2329 170.571 16.2C170.516 16.1671 170.439 15.9476 170.395 15.728C170.351 15.4976 170.285 15.2561 170.23 15.2012C170.186 15.1354 170.12 14.9707 170.087 14.8171C170.054 14.6634 169.9 14.1915 169.746 13.7744C169.592 13.3463 169.46 12.9293 169.46 12.8305C169.46 12.7317 169.383 12.5012 169.295 12.3366C169.207 12.161 169.13 11.9305 169.13 11.8317C169.13 11.7329 169.086 11.6122 169.019 11.5793C168.964 11.5463 168.909 11.4146 168.909 11.2829C168.909 11.1622 168.843 10.9098 168.766 10.7232C168.458 9.9878 168.326 9.59268 168.271 9.16463C168.249 8.92316 168.15 8.62682 168.073 8.50609C167.985 8.38536 167.919 8.15487 167.919 7.99024C167.919 7.81463 167.875 7.68292 167.809 7.68292C167.754 7.68292 167.666 7.48536 167.633 7.24389C167.589 7.00243 167.512 6.77194 167.468 6.73902C167.413 6.70609 167.369 6.57438 167.369 6.4317C167.369 6.29999 167.292 6.09145 167.204 5.97072C167.116 5.86097 167.039 5.67438 167.039 5.55365C167.039 5.33414 166.764 4.44511 166.522 3.87438C166.445 3.68779 166.379 3.43536 166.379 3.31462C166.379 3.18292 166.335 3.05121 166.269 3.01828C166.214 2.98535 166.159 2.8756 166.159 2.77682C166.159 2.68901 166.093 2.45852 166.005 2.27194C165.917 2.07438 165.818 1.72316 165.785 1.4817C165.752 1.24023 165.675 1.03169 165.609 1.00974C165.554 0.987793 165.499 0.779255 165.499 0.548767C165.499 0.208523 165.455 0.120718 165.257 0.0658398C164.971 -0.0109882 158.061 -1.33514e-05 157.775 0.0768166Z" fill="#2176FF"/>
<path d="M102.014 6.95853C102.014 7.10121 101.937 7.43048 101.849 7.68292C101.761 7.93536 101.684 8.36341 101.684 8.62682C101.684 8.87926 101.629 9.23048 101.563 9.40609C101.431 9.74634 101.31 10.4158 101.101 11.9634C101.013 12.5341 100.925 13.0829 100.892 13.1707C100.848 13.2585 100.793 13.6207 100.749 13.961C100.705 14.3122 100.628 14.6195 100.573 14.6524C100.518 14.6963 100.474 14.9488 100.474 15.2232C100.474 15.4976 100.397 15.9805 100.298 16.2988C100.21 16.628 100.144 17.1329 100.166 17.4183L100.199 17.9451L114.073 17.978L127.947 18L128.244 17.7695C128.486 17.5829 128.53 17.4622 128.53 16.9793C128.541 16.661 128.585 16.189 128.651 15.9146C128.717 15.6402 128.805 15.1683 128.86 14.8719C128.904 14.5646 129.003 14.1256 129.069 13.8841C129.135 13.6427 129.19 13.3134 129.19 13.1378V12.8415H118.188H107.185V12.1939C107.185 11.7768 107.24 11.5024 107.339 11.4256C107.449 11.3268 109.309 11.2939 114.436 11.3049C122.413 11.3049 122.072 11.3488 122.182 10.4707C122.226 10.1744 122.336 9.51585 122.424 8.99999C122.71 7.54024 122.798 6.8817 122.743 6.78292C122.71 6.73901 118.034 6.69511 112.345 6.69511H102.014V6.95853Z" fill="#2176FF"/>
</svg>
