<svg width="18" height="15" viewBox="0 0 18 15" fill="none" xmlns="http://www.w3.org/2000/svg">
<path d="M2.33268 14.1667C1.87435 14.1667 1.48199 14.0035 1.1556 13.6771C0.82921 13.3507 0.666016 12.9584 0.666016 12.5V2.50004C0.666016 2.04171 0.82921 1.64935 1.1556 1.32296C1.48199 0.996568 1.87435 0.833374 2.33268 0.833374H15.666C16.1243 0.833374 16.5167 0.996568 16.8431 1.32296C17.1695 1.64935 17.3327 2.04171 17.3327 2.50004V12.5C17.3327 12.9584 17.1695 13.3507 16.8431 13.6771C16.5167 14.0035 16.1243 14.1667 15.666 14.1667H2.33268ZM8.99935 8.33337L2.33268 4.16671V12.5H15.666V4.16671L8.99935 8.33337ZM8.99935 6.66671L15.666 2.50004H2.33268L8.99935 6.66671ZM2.33268 4.16671V2.50004V12.5V4.16671Z" fill="#1F1F1F"/>
</svg>
