<svg width="14" height="8" viewBox="0 0 14 8" fill="none" xmlns="http://www.w3.org/2000/svg">
<path d="M3.25 1.75V0.25H13.75V1.75H3.25ZM3.25 4.75V3.25H13.75V4.75H3.25ZM3.25 7.75V6.25H13.75V7.75H3.25ZM1 1.75C0.7875 1.75 0.609375 1.67813 0.465625 1.53438C0.321875 1.39062 0.25 1.2125 0.25 1C0.25 0.7875 0.321875 0.609375 0.465625 0.465625C0.609375 0.321875 0.7875 0.25 1 0.25C1.2125 0.25 1.39062 0.321875 1.53438 0.465625C1.67813 0.609375 1.75 0.7875 1.75 1C1.75 1.2125 1.67813 1.39062 1.53438 1.53438C1.39062 1.67813 1.2125 1.75 1 1.75ZM1 4.75C0.7875 4.75 0.609375 4.67813 0.465625 4.53438C0.321875 4.39062 0.25 4.2125 0.25 4C0.25 3.7875 0.321875 3.60938 0.465625 3.46563C0.609375 3.32188 0.7875 3.25 1 3.25C1.2125 3.25 1.39062 3.32188 1.53438 3.46563C1.67813 3.60938 1.75 3.7875 1.75 4C1.75 4.2125 1.67813 4.39062 1.53438 4.53438C1.39062 4.67813 1.2125 4.75 1 4.75ZM1 7.75C0.7875 7.75 0.609375 7.67813 0.465625 7.53438C0.321875 7.39063 0.25 7.2125 0.25 7C0.25 6.7875 0.321875 6.60938 0.465625 6.46563C0.609375 6.32188 0.7875 6.25 1 6.25C1.2125 6.25 1.39062 6.32188 1.53438 6.46563C1.67813 6.60938 1.75 6.7875 1.75 7C1.75 7.2125 1.67813 7.39063 1.53438 7.53438C1.39062 7.67813 1.2125 7.75 1 7.75Z" fill="#1F1F1F"/>
</svg>
